<?xml version="1.0" encoding="utf-8"?>
<!-- Generator: Adobe Illustrator 23.0.5, SVG Export Plug-In . SVG Version: 6.00 Build 0)  -->
<svg version="1.1" id="Layer_1" xmlns="http://www.w3.org/2000/svg" xmlns:xlink="http://www.w3.org/1999/xlink" x="0px" y="0px"
	 viewBox="0 0 1095.3 595.3" style="enable-background:new 0 0 1095.3 595.3;" xml:space="preserve">
<style type="text/css">
	.st0{fill:#FFFFFF;}
	.st1{fill:#FDD413;}
</style>
<g>

	<g>
		<g>
			<path class="st1" d="M77.7,321.7v-27.6c0-3.5-0.9-5.7-2.6-6.6s-4.9-1.3-9.5-1.3v-20.1c4.6,0,7.8-0.4,9.5-1.3
				c1.7-0.9,2.6-3.2,2.6-6.6v-25c0-9.7,2-16.2,5.9-19.4c2-1.6,4.6-2.8,8-3.5H25.9v134.6h65.6c-3.4-0.8-6-2-8-3.5
				C79.6,338,77.7,331.4,77.7,321.7z"/>
		</g>
		<g>
			<path class="st1" d="M160.5,210.1h-39.7v17.6h-18.4c-1.3,0-2.4,0.1-2.9,0.5c-0.5,0.4-0.9,1.2-0.9,2.6v27.3
				c0,9.1-2.9,15.1-8.7,18.3c5.8,2.9,8.7,8.9,8.7,18.1v29.3c0,1.3,0.3,2.2,0.9,2.6c0.5,0.4,1.6,0.5,2.9,0.5h18.4v17.6h39.7V210.1z"
				/>
		</g>
	</g>
</g>
</svg>
